<svg width="23" height="23" viewBox="0 0 23 23" fill="none" xmlns="http://www.w3.org/2000/svg">
<g clip-path="url(#clip0_264_8371)">
<path d="M17.6094 0H5.39062C2.41347 0 0 2.41347 0 5.39062V17.6094C0 20.5865 2.41347 23 5.39062 23H17.6094C20.5865 23 23 20.5865 23 17.6094V5.39062C23 2.41347 20.5865 0 17.6094 0Z" fill="white"/>
<path d="M17.6094 0H5.39062C2.41347 0 0 2.41347 0 5.39062V17.6094C0 20.5865 2.41347 23 5.39062 23H17.6094C20.5865 23 23 20.5865 23 17.6094V5.39062C23 2.41347 20.5865 0 17.6094 0Z" fill="#0A66C2"/>
<path d="M16.5956 19.5575H19.2254C19.4238 19.5575 19.5848 19.3967 19.5848 19.1982L19.5861 13.6421C19.5861 10.7381 18.9603 8.50584 15.5667 8.50584C14.2766 8.45794 13.06 9.12293 12.4035 10.2334C12.3983 10.2422 12.389 10.2476 12.3787 10.2476C12.3629 10.2476 12.3501 10.2348 12.3501 10.2189V9.13336C12.3501 8.9349 12.1893 8.774 11.9907 8.774H9.49512C9.29665 8.774 9.13574 8.9349 9.13574 9.13336V19.1977C9.13574 19.3962 9.29665 19.557 9.49512 19.557H12.1247C12.3231 19.557 12.484 19.3962 12.484 19.1977V14.2227C12.484 12.8161 12.7509 11.4538 14.4948 11.4538C16.214 11.4538 16.2363 13.0634 16.2363 14.3138V19.1981C16.2363 19.3966 16.3972 19.5575 16.5956 19.5575Z" fill="white"/>
<path d="M3.41406 5.35716C3.41406 6.42312 4.29161 7.30015 5.35757 7.30015C6.42332 7.30006 7.30026 6.42251 7.30026 5.35675C7.30006 4.291 6.42302 3.41406 5.35716 3.41406C4.29121 3.41406 3.41406 4.29121 3.41406 5.35716Z" fill="white"/>
<path d="M4.03906 19.5574H6.67212C6.87061 19.5574 7.0315 19.3965 7.0315 19.198V9.13328C7.0315 8.93483 6.87061 8.77393 6.67212 8.77393H4.03906C3.84059 8.77393 3.67969 8.93483 3.67969 9.13328V19.198C3.67969 19.3965 3.84059 19.5574 4.03906 19.5574Z" fill="white"/>
</g>
<defs>
<clipPath id="clip0_264_8371">
<rect width="23" height="23" fill="white"/>
</clipPath>
</defs>
</svg>
